# This file uses centimeters as units for non-parametric coordinates.

mtllib pokeTubos.mtl
g default
v -5.492953 0.110077 -8.074057
v -5.257167 0.110077 -8.217866
v -5.077362 0.110077 -8.427497
v -4.971137 0.110077 -8.682433
v -4.948890 0.110077 -8.957716
v -5.012799 0.110077 -9.226399
v -5.156609 0.110077 -9.462185
v -5.366241 0.110077 -9.641990
v -6.501486 0.110077 -8.318426
v -6.291854 0.110077 -8.138620
v -6.036920 0.110077 -8.032395
v -5.761637 0.110077 -8.010148
v -5.492953 6.746763 -8.074057
v -5.257167 6.746763 -8.217866
v -5.077362 6.746763 -8.427497
v -4.971137 6.746763 -8.682433
v -4.948890 6.746763 -8.957716
v -5.012799 6.746763 -9.226399
v -5.156609 6.746763 -9.462185
v -5.366241 6.746763 -9.641990
v -6.501486 6.746763 -8.318426
v -6.291854 6.746763 -8.138620
v -6.036920 6.746763 -8.032395
v -5.761637 6.746763 -8.010148
vt 0.375000 0.312500
vt 0.387500 0.312500
vt 0.400000 0.312500
vt 0.412500 0.312500
vt 0.425000 0.312500
vt 0.437500 0.312500
vt 0.450000 0.312500
vt 0.462500 0.312500
vt 0.575000 0.312500
vt 0.587500 0.312500
vt 0.600000 0.312500
vt 0.612500 0.312500
vt 0.625000 0.312500
vt 0.375000 0.688440
vt 0.387500 0.688440
vt 0.400000 0.688440
vt 0.412500 0.688440
vt 0.425000 0.688440
vt 0.437500 0.688440
vt 0.450000 0.688440
vt 0.462500 0.688440
vt 0.575000 0.688440
vt 0.587500 0.688440
vt 0.600000 0.688440
vt 0.612500 0.688440
vt 0.625000 0.688440
vn 0.380742 0.000000 0.924682
vn 0.647848 0.000000 0.761770
vn 0.647848 0.000000 0.761770
vn 0.380742 0.000000 0.924682
vn 0.851541 0.000000 0.524288
vn 0.851541 0.000000 0.524288
vn 0.971878 0.000000 0.235486
vn 0.971878 0.000000 0.235486
vn 0.997080 0.000000 -0.076366
vn 0.997080 0.000000 -0.076366
vn 0.924681 0.000000 -0.380744
vn 0.924681 0.000000 -0.380744
vn 0.761769 0.000000 -0.647849
vn 0.761769 0.000000 -0.647849
vn 0.651044 0.000000 -0.759040
vn 0.651044 0.000000 -0.759040
vn -0.651044 0.000000 0.759040
vn -0.524288 0.000000 0.851541
vn -0.524288 0.000000 0.851541
vn -0.651044 0.000000 0.759040
vn -0.235486 0.000000 0.971878
vn -0.235486 0.000000 0.971878
vn 0.076366 0.000000 0.997080
vn 0.076366 0.000000 0.997080
s 1
g pCylinder9
usemtl phong66SG
f 1/1/1 2/2/2 14/15/3 13/14/4
f 2/2/2 3/3/5 15/16/6 14/15/3
f 3/3/5 4/4/7 16/17/8 15/16/6
f 4/4/7 5/5/9 17/18/10 16/17/8
f 5/5/9 6/6/11 18/19/12 17/18/10
f 6/6/11 7/7/13 19/20/14 18/19/12
f 7/7/13 8/8/15 20/21/16 19/20/14
f 9/9/17 10/10/18 22/23/19 21/22/20
f 10/10/18 11/11/21 23/24/22 22/23/19
f 11/11/21 12/12/23 24/25/24 23/24/22
f 12/12/23 1/13/1 13/26/4 24/25/24
g default
v -4.988527 0.110077 8.478868
v -5.113910 0.110077 8.232789
v -5.309199 0.110077 8.037501
v -5.555278 0.110077 7.912117
v -5.828058 0.110077 7.868913
v -6.100838 0.110077 7.912117
v -6.346916 0.110077 8.037501
v -6.542205 0.110077 8.232789
v -5.309199 0.110077 9.465796
v -5.113911 0.110077 9.270507
v -4.988527 0.110077 9.024429
v -4.945323 0.110077 8.751648
v -4.988527 6.746763 8.478868
v -5.113910 6.746763 8.232789
v -5.309199 6.746763 8.037501
v -5.555278 6.746763 7.912117
v -5.828058 6.746763 7.868913
v -6.100838 6.746763 7.912117
v -6.346916 6.746763 8.037501
v -6.542205 6.746763 8.232789
v -5.309199 6.746763 9.465796
v -5.113911 6.746763 9.270507
v -4.988527 6.746763 9.024429
v -4.945323 6.746763 8.751648
vt 0.375000 0.312500
vt 0.387500 0.312500
vt 0.400000 0.312500
vt 0.412500 0.312500
vt 0.425000 0.312500
vt 0.437500 0.312500
vt 0.450000 0.312500
vt 0.462500 0.312500
vt 0.575000 0.312500
vt 0.587500 0.312500
vt 0.600000 0.312500
vt 0.612500 0.312500
vt 0.625000 0.312500
vt 0.375000 0.688440
vt 0.387500 0.688440
vt 0.400000 0.688440
vt 0.412500 0.688440
vt 0.425000 0.688440
vt 0.437500 0.688440
vt 0.450000 0.688440
vt 0.462500 0.688440
vt 0.575000 0.688440
vt 0.587500 0.688440
vt 0.600000 0.688440
vt 0.612500 0.688440
vt 0.625000 0.688440
vn 0.951057 0.000000 -0.309016
vn 0.809017 0.000000 -0.587785
vn 0.809017 0.000000 -0.587785
vn 0.951057 0.000000 -0.309016
vn 0.587785 0.000000 -0.809017
vn 0.587785 0.000000 -0.809017
vn 0.309017 0.000000 -0.951057
vn 0.309017 0.000000 -0.951057
vn 0.000000 0.000000 -1.000000
vn 0.000000 0.000000 -1.000000
vn -0.309017 0.000000 -0.951056
vn -0.309017 0.000000 -0.951056
vn -0.587785 0.000000 -0.809017
vn -0.587785 0.000000 -0.809017
vn -0.707106 0.000000 -0.707107
vn -0.707106 0.000000 -0.707107
vn 0.707106 0.000000 0.707108
vn 0.809017 0.000000 0.587785
vn 0.809017 0.000000 0.587785
vn 0.707106 0.000000 0.707108
vn 0.951056 0.000000 0.309017
vn 0.951056 0.000000 0.309017
vn 1.000000 0.000000 0.000001
vn 1.000000 0.000000 0.000001
s 1
g pCylinder8
usemtl phong66SG
f 25/27/25 26/28/26 38/41/27 37/40/28
f 26/28/26 27/29/29 39/42/30 38/41/27
f 27/29/29 28/30/31 40/43/32 39/42/30
f 28/30/31 29/31/33 41/44/34 40/43/32
f 29/31/33 30/32/35 42/45/36 41/44/34
f 30/32/35 31/33/37 43/46/38 42/45/36
f 31/33/37 32/34/39 44/47/40 43/46/38
f 33/35/41 34/36/42 46/49/43 45/48/44
f 34/36/42 35/37/45 47/50/46 46/49/43
f 35/37/45 36/38/47 48/51/48 47/50/46
f 36/38/47 25/39/25 37/52/28 48/51/48
