# This file uses centimeters as units for non-parametric coordinates.

mtllib pokeBancoRosa.mtl
g default
v -5.013937 0.859409 6.457219
v -5.013937 0.940436 6.538246
v -5.094963 0.940436 6.457219
v -4.446684 0.940436 6.457219
v -4.527711 0.940436 6.538246
v -4.527711 0.859409 6.457219
v -5.094963 1.102522 6.457219
v -5.013937 1.102522 6.538246
v -5.013937 1.183549 6.457219
v -4.527711 1.183549 6.457219
v -4.527711 1.102522 6.538246
v -4.446684 1.102522 6.457219
v -5.094963 1.102522 5.970993
v -5.013937 1.183549 5.970993
v -5.013937 1.102522 5.889966
v -4.527711 1.102522 5.889966
v -4.527711 1.183549 5.970993
v -4.446684 1.102522 5.970993
v -5.094963 0.940436 5.970993
v -5.013937 0.940436 5.889966
v -5.013937 0.859409 5.970993
v -4.527711 0.859409 5.970993
v -4.527711 0.940436 5.889966
v -4.446684 0.940436 5.970993
v -5.005447 0.436986 6.090858
v -4.897400 0.436986 6.090858
v -5.005447 0.869173 6.090858
v -4.897400 0.869173 6.090858
v -5.005447 0.869173 5.982812
v -4.897400 0.869173 5.982812
v -5.005447 0.436986 5.982812
v -4.897400 0.436986 5.982812
v -4.641357 0.436986 6.085047
v -4.533310 0.436986 6.085047
v -4.641357 0.869173 6.085047
v -4.533310 0.869173 6.085047
v -4.641357 0.869173 5.977000
v -4.533310 0.869173 5.977000
v -4.641357 0.436986 5.977000
v -4.533310 0.436986 5.977000
v -4.641357 0.436986 6.445003
v -4.533310 0.436986 6.445003
v -4.641357 0.869173 6.445003
v -4.533310 0.869173 6.445003
v -4.641357 0.869173 6.336956
v -4.533310 0.869173 6.336956
v -4.641357 0.436986 6.336956
v -4.533310 0.436986 6.336956
v -5.005447 0.436986 6.450814
v -4.897400 0.436986 6.450814
v -5.005447 0.869173 6.450814
v -4.897400 0.869173 6.450814
v -5.005447 0.869173 6.342768
v -4.897400 0.869173 6.342768
v -5.005447 0.436986 6.342768
v -4.897400 0.436986 6.342768
vt 0.406247 0.968753
vt 0.375000 0.968753
vt 0.375000 0.781247
vt 0.406247 -0.000000
vt 0.406247 0.062494
vt 0.625000 0.968753
vt 0.593753 0.968753
vt 0.625000 0.781247
vt 0.656247 0.062494
vt 0.375000 0.281247
vt 0.375000 0.468753
vt 0.406247 0.187506
vt 0.593753 0.187506
vt 0.625000 0.281247
vt 0.375000 0.562494
vt 0.375000 0.687506
vt 0.406247 0.468753
vt 0.593753 0.468753
vt 0.625000 0.562494
vt 0.625000 0.687506
vt 0.406247 0.687506
vt 0.593753 0.687506
vt 0.593753 0.781247
vt 0.593753 0.062494
vt 0.406247 0.281247
vt 0.593753 0.281247
vt 0.406247 0.562494
vt 0.593753 0.562494
vt 0.406247 0.781247
vt 0.843753 0.062494
vt 0.843753 0.187506
vt 0.156247 0.062494
vt 0.343753 0.062494
vt 0.343753 0.187506
vt 0.156247 0.187506
vt 0.593753 0.000000
vt 0.656247 0.187506
vt 0.625000 0.468753
vt 0.375000 0.000000
vt 0.625000 0.000000
vt 0.625000 0.250000
vt 0.375000 0.250000
vt 0.625000 0.500000
vt 0.375000 0.500000
vt 0.625000 0.750000
vt 0.375000 0.750000
vt 0.625000 1.000000
vt 0.375000 1.000000
vt 0.875000 0.000000
vt 0.875000 0.250000
vt 0.125000 0.000000
vt 0.125000 0.250000
vt 0.375000 0.000000
vt 0.625000 0.000000
vt 0.625000 0.250000
vt 0.375000 0.250000
vt 0.625000 0.500000
vt 0.375000 0.500000
vt 0.625000 0.750000
vt 0.375000 0.750000
vt 0.625000 1.000000
vt 0.375000 1.000000
vt 0.875000 0.000000
vt 0.875000 0.250000
vt 0.125000 0.000000
vt 0.125000 0.250000
vt 0.375000 0.000000
vt 0.625000 0.000000
vt 0.625000 0.250000
vt 0.375000 0.250000
vt 0.625000 0.500000
vt 0.375000 0.500000
vt 0.625000 0.750000
vt 0.375000 0.750000
vt 0.625000 1.000000
vt 0.375000 1.000000
vt 0.875000 0.000000
vt 0.875000 0.250000
vt 0.125000 0.000000
vt 0.125000 0.250000
vt 0.375000 0.000000
vt 0.625000 0.000000
vt 0.625000 0.250000
vt 0.375000 0.250000
vt 0.625000 0.500000
vt 0.375000 0.500000
vt 0.625000 0.750000
vt 0.375000 0.750000
vt 0.625000 1.000000
vt 0.375000 1.000000
vt 0.875000 0.000000
vt 0.875000 0.250000
vt 0.125000 0.000000
vt 0.125000 0.250000
vn -0.707107 -0.707107 0.000000
vn -0.707107 -0.707107 0.000000
vn -0.707107 -0.707107 0.000000
vn -0.707107 -0.707107 0.000000
vn 0.000000 -0.707107 0.707107
vn 0.000000 -0.707107 0.707107
vn 0.000000 -0.707107 0.707107
vn 0.000000 -0.707107 0.707107
vn -0.707107 0.000000 0.707107
vn -0.707107 0.000000 0.707107
vn -0.707107 0.000000 0.707107
vn -0.707107 0.000000 0.707107
vn 0.707107 -0.707107 0.000000
vn 0.707107 -0.707107 0.000000
vn 0.707107 -0.707107 0.000000
vn 0.707107 -0.707107 0.000000
vn 0.707107 0.000000 0.707107
vn 0.707107 0.000000 0.707107
vn 0.707107 0.000000 0.707107
vn 0.707107 0.000000 0.707107
vn -0.707107 0.707107 0.000000
vn -0.707107 0.707107 0.000000
vn -0.707107 0.707107 0.000000
vn -0.707107 0.707107 0.000000
vn 0.000000 0.707107 0.707107
vn 0.000000 0.707107 0.707107
vn 0.000000 0.707107 0.707107
vn 0.000000 0.707107 0.707107
vn 0.707107 0.707107 0.000000
vn 0.707107 0.707107 0.000000
vn 0.707107 0.707107 0.000000
vn 0.707107 0.707107 0.000000
vn -0.707107 0.000000 -0.707107
vn -0.707107 0.000000 -0.707107
vn -0.707107 0.000000 -0.707107
vn -0.707107 0.000000 -0.707107
vn 0.000000 0.707107 -0.707107
vn 0.000000 0.707107 -0.707107
vn 0.000000 0.707107 -0.707107
vn 0.000000 0.707107 -0.707107
vn 0.707107 0.000000 -0.707107
vn 0.707107 0.000000 -0.707107
vn 0.707107 0.000000 -0.707107
vn 0.707107 0.000000 -0.707107
vn 0.000000 -0.707107 -0.707107
vn 0.000000 -0.707107 -0.707107
vn 0.000000 -0.707107 -0.707107
vn 0.000000 -0.707107 -0.707107
vn 0.000000 0.000000 1.000000
vn 0.000000 0.000000 1.000000
vn 0.000000 0.000000 1.000000
vn 0.000000 0.000000 1.000000
vn 0.000000 1.000000 0.000000
vn 0.000000 1.000000 0.000000
vn 0.000000 1.000000 0.000000
vn 0.000000 1.000000 0.000000
vn 0.000000 0.000000 -1.000000
vn 0.000000 0.000000 -1.000000
vn 0.000000 0.000000 -1.000000
vn 0.000000 0.000000 -1.000000
vn 0.000000 -1.000000 0.000000
vn 0.000000 -1.000000 0.000000
vn 0.000000 -1.000000 0.000000
vn 0.000000 -1.000000 0.000000
vn 1.000000 0.000000 0.000000
vn 1.000000 0.000000 0.000000
vn 1.000000 0.000000 0.000000
vn 1.000000 0.000000 0.000000
vn -1.000000 0.000000 0.000000
vn -1.000000 0.000000 0.000000
vn -1.000000 0.000000 0.000000
vn -1.000000 0.000000 0.000000
vn -0.577350 -0.577350 0.577350
vn -0.577350 -0.577350 0.577350
vn -0.577350 -0.577350 0.577350
vn 0.577351 -0.577350 0.577350
vn 0.577351 -0.577350 0.577350
vn 0.577351 -0.577350 0.577350
vn -0.577350 0.577350 0.577350
vn -0.577350 0.577350 0.577350
vn -0.577350 0.577350 0.577350
vn 0.577350 0.577350 0.577350
vn 0.577350 0.577350 0.577350
vn 0.577350 0.577350 0.577350
vn -0.577350 0.577350 -0.577350
vn -0.577350 0.577350 -0.577350
vn -0.577350 0.577350 -0.577350
vn 0.577350 0.577350 -0.577350
vn 0.577350 0.577350 -0.577350
vn 0.577350 0.577350 -0.577350
vn -0.577350 -0.577350 -0.577350
vn -0.577350 -0.577350 -0.577350
vn -0.577350 -0.577350 -0.577350
vn 0.577351 -0.577350 -0.577350
vn 0.577351 -0.577350 -0.577350
vn 0.577351 -0.577350 -0.577350
vn 0.000000 0.000000 1.000000
vn 0.000000 0.000000 1.000000
vn 0.000000 0.000000 1.000000
vn 0.000000 0.000000 1.000000
vn 0.000000 1.000000 0.000000
vn 0.000000 1.000000 0.000000
vn 0.000000 1.000000 0.000000
vn 0.000000 1.000000 0.000000
vn 0.000000 0.000000 -1.000000
vn 0.000000 0.000000 -1.000000
vn 0.000000 0.000000 -1.000000
vn 0.000000 0.000000 -1.000000
vn 0.000000 -1.000000 0.000000
vn 0.000000 -1.000000 0.000000
vn 0.000000 -1.000000 0.000000
vn 0.000000 -1.000000 0.000000
vn 1.000000 0.000000 0.000000
vn 1.000000 0.000000 0.000000
vn 1.000000 0.000000 0.000000
vn 1.000000 0.000000 0.000000
vn -1.000000 0.000000 0.000000
vn -1.000000 0.000000 0.000000
vn -1.000000 0.000000 0.000000
vn -1.000000 0.000000 0.000000
vn 0.000000 0.000000 1.000000
vn 0.000000 0.000000 1.000000
vn 0.000000 0.000000 1.000000
vn 0.000000 0.000000 1.000000
vn 0.000000 1.000000 0.000000
vn 0.000000 1.000000 0.000000
vn 0.000000 1.000000 0.000000
vn 0.000000 1.000000 0.000000
vn 0.000000 0.000000 -1.000000
vn 0.000000 0.000000 -1.000000
vn 0.000000 0.000000 -1.000000
vn 0.000000 0.000000 -1.000000
vn 0.000000 -1.000000 0.000000
vn 0.000000 -1.000000 0.000000
vn 0.000000 -1.000000 0.000000
vn 0.000000 -1.000000 0.000000
vn 1.000000 0.000000 0.000000
vn 1.000000 0.000000 0.000000
vn 1.000000 0.000000 0.000000
vn 1.000000 0.000000 0.000000
vn -1.000000 0.000000 0.000000
vn -1.000000 0.000000 0.000000
vn -1.000000 0.000000 0.000000
vn -1.000000 0.000000 0.000000
vn 0.000000 0.000000 1.000000
vn 0.000000 0.000000 1.000000
vn 0.000000 0.000000 1.000000
vn 0.000000 0.000000 1.000000
vn 0.000000 1.000000 0.000000
vn 0.000000 1.000000 0.000000
vn 0.000000 1.000000 0.000000
vn 0.000000 1.000000 0.000000
vn 0.000000 0.000000 -1.000000
vn 0.000000 0.000000 -1.000000
vn 0.000000 0.000000 -1.000000
vn 0.000000 0.000000 -1.000000
vn 0.000000 -1.000000 0.000000
vn 0.000000 -1.000000 0.000000
vn 0.000000 -1.000000 0.000000
vn 0.000000 -1.000000 0.000000
vn 1.000000 0.000000 0.000000
vn 1.000000 0.000000 0.000000
vn 1.000000 0.000000 0.000000
vn 1.000000 0.000000 0.000000
vn -1.000000 0.000000 0.000000
vn -1.000000 0.000000 0.000000
vn -1.000000 0.000000 0.000000
vn -1.000000 0.000000 0.000000
vn 0.000000 0.000000 1.000000
vn 0.000000 0.000000 1.000000
vn 0.000000 0.000000 1.000000
vn 0.000000 0.000000 1.000000
vn 0.000000 1.000000 0.000000
vn 0.000000 1.000000 0.000000
vn 0.000000 1.000000 0.000000
vn 0.000000 1.000000 0.000000
vn 0.000000 0.000000 -1.000000
vn 0.000000 0.000000 -1.000000
vn 0.000000 0.000000 -1.000000
vn 0.000000 0.000000 -1.000000
vn 0.000000 -1.000000 0.000000
vn 0.000000 -1.000000 0.000000
vn 0.000000 -1.000000 0.000000
vn 0.000000 -1.000000 0.000000
vn 1.000000 0.000000 0.000000
vn 1.000000 0.000000 0.000000
vn 1.000000 0.000000 0.000000
vn 1.000000 0.000000 0.000000
vn -1.000000 0.000000 0.000000
vn -1.000000 0.000000 0.000000
vn -1.000000 0.000000 0.000000
vn -1.000000 0.000000 0.000000
s off
g bancoPokemon11:pCube2 pasted__pasted__pasted__group20 pasted__pasted__group21 pasted__group22 group23
usemtl phong14SG
f 1/1/1 3/2/2 19/3/3 21/29/4
f 2/5/5 1/4/6 6/36/7 5/24/8
f 3/33/9 2/5/10 8/12/11 7/34/12
f 4/6/13 6/7/14 22/23/15 24/8/16
f 5/24/17 4/9/18 12/37/19 11/13/20
f 7/10/21 9/25/22 14/17/23 13/11/24
f 9/25/25 8/12/26 11/13/27 10/26/28
f 10/26/29 12/14/30 18/38/31 17/18/32
f 13/15/33 15/27/34 20/21/35 19/16/36
f 15/27/37 14/17/38 17/18/39 16/28/40
f 16/28/41 18/19/42 24/20/43 23/22/44
f 21/29/45 20/21/46 23/22/47 22/23/48
f 2/5/49 5/24/50 11/13/51 8/12/52
f 9/25/53 10/26/54 17/18/55 14/17/56
f 15/27/57 16/28/58 23/22/59 20/21/60
f 21/29/61 22/23/62 6/7/63 1/1/64
f 4/9/65 24/30/66 18/31/67 12/37/68
f 19/32/69 3/33/70 7/34/71 13/35/72
f 1/4/73 2/5/74 3/33/75
f 4/9/76 5/24/77 6/36/78
f 7/34/79 8/12/80 9/25/81
f 10/26/82 11/13/83 12/37/84
f 13/11/85 14/17/86 15/27/87
f 16/28/88 17/18/89 18/38/90
f 19/16/91 20/21/92 21/29/93
f 22/23/94 23/22/95 24/20/96
usemtl phongE1SG
f 25/39/97 26/40/98 28/41/99 27/42/100
usemtl phong14SG
f 27/42/101 28/41/102 30/43/103 29/44/104
usemtl phongE1SG
f 29/44/105 30/43/106 32/45/107 31/46/108
usemtl phong14SG
f 31/46/109 32/45/110 26/47/111 25/48/112
usemtl phongE1SG
f 26/40/113 32/49/114 30/50/115 28/41/116
f 31/51/117 25/39/118 27/42/119 29/52/120
f 33/53/121 34/54/122 36/55/123 35/56/124
usemtl phong14SG
f 35/56/125 36/55/126 38/57/127 37/58/128
usemtl phongE1SG
f 37/58/129 38/57/130 40/59/131 39/60/132
usemtl phong14SG
f 39/60/133 40/59/134 34/61/135 33/62/136
usemtl phongE1SG
f 34/54/137 40/63/138 38/64/139 36/55/140
f 39/65/141 33/53/142 35/56/143 37/66/144
f 41/67/145 42/68/146 44/69/147 43/70/148
usemtl phong14SG
f 43/70/149 44/69/150 46/71/151 45/72/152
usemtl phongE1SG
f 45/72/153 46/71/154 48/73/155 47/74/156
usemtl phong14SG
f 47/74/157 48/73/158 42/75/159 41/76/160
usemtl phongE1SG
f 42/68/161 48/77/162 46/78/163 44/69/164
f 47/79/165 41/67/166 43/70/167 45/80/168
f 49/81/169 50/82/170 52/83/171 51/84/172
usemtl phong14SG
f 51/84/173 52/83/174 54/85/175 53/86/176
usemtl phongE1SG
f 53/86/177 54/85/178 56/87/179 55/88/180
usemtl phong14SG
f 55/88/181 56/87/182 50/89/183 49/90/184
usemtl phongE1SG
f 50/82/185 56/91/186 54/92/187 52/83/188
f 55/93/189 49/81/190 51/84/191 53/94/192
