# This file uses centimeters as units for non-parametric coordinates.

mtllib pokeBanda.mtl
g default
v 0.138204 -0.297162 -3.709456
v -1.046323 -0.297162 -3.577516
v -2.132104 -0.297162 -3.085995
v -3.012855 -0.297162 -2.283006
v -3.602362 -0.297162 -1.247151
v -3.842920 -0.297162 -0.079826
v -3.710980 -0.297162 1.104701
v -3.219459 -0.297162 2.190482
v -2.416469 -0.297162 3.071233
v -1.380614 -0.297162 3.660739
v -0.213291 -0.297162 3.901297
v 0.971236 -0.297162 3.769357
v 2.057017 -0.297162 3.277836
v 2.937767 -0.297162 2.474848
v 3.527275 -0.297162 1.438993
v 3.767832 -0.297162 0.271669
v 3.635892 -0.297162 -0.912858
v 3.144371 -0.297162 -1.998639
v 2.341382 -0.297162 -2.879390
v 1.305529 -0.297162 -3.468897
v 0.138204 0.303015 -3.709456
v -1.046323 0.303015 -3.577516
v -2.132104 0.303015 -3.085995
v -3.012855 0.303015 -2.283006
v -3.602362 0.303015 -1.247151
v -3.842920 0.303015 -0.079826
v -3.710980 0.303015 1.104701
v -3.219459 0.303015 2.190482
v -2.416469 0.303015 3.071233
v -1.380614 0.303015 3.660739
v -0.213291 0.303015 3.901297
v 0.971236 0.303015 3.769357
v 2.057017 0.303015 3.277836
v 2.937767 0.303015 2.474848
v 3.527275 0.303015 1.438993
v 3.767832 0.303015 0.271669
v 3.635892 0.303015 -0.912858
v 3.144371 0.303015 -1.998639
v 2.341382 0.303015 -2.879390
v 1.305529 0.303015 -3.468897
vt -0.010505 -0.009375
vt -0.010505 1.009375
vt 0.938374 1.009375
vt 0.039436 -0.009375
vt 0.039436 1.009375
vt 0.089377 -0.009375
vt 0.089377 1.009375
vt 0.139318 -0.009375
vt 0.139318 1.009375
vt 0.189259 -0.009375
vt 0.189259 1.009375
vt 0.239200 -0.009375
vt 0.239200 1.009375
vt 0.289141 -0.009375
vt 0.289141 1.009375
vt 0.339082 -0.009375
vt 0.339082 1.009375
vt 0.389023 -0.009375
vt 0.389023 1.009375
vt 0.438964 -0.009375
vt 0.438964 1.009375
vt 0.488905 -0.009375
vt 0.488905 1.009375
vt 0.538846 -0.009375
vt 0.538846 1.009375
vt 0.588787 -0.009375
vt 0.588787 1.009375
vt 0.638728 -0.009375
vt 0.638728 1.009375
vt 0.688669 -0.009375
vt 0.688669 1.009375
vt 0.738610 -0.009375
vt 0.738610 1.009375
vt 0.788551 -0.009375
vt 0.788551 1.009375
vt 0.838492 -0.009375
vt 0.838492 1.009375
vt 0.888433 -0.009375
vt 0.888433 1.009375
vt 0.938374 -0.009375
vt 0.988315 -0.009375
vt 0.988315 1.009375
vn 0.046136 0.000000 -0.998935
vn -0.264811 0.000000 -0.964300
vn -0.264811 0.000000 -0.964300
vn 0.046136 0.000000 -0.998935
vn -0.264811 0.000000 -0.964300
vn -0.549836 0.000000 -0.835273
vn -0.549836 0.000000 -0.835273
vn -0.264811 0.000000 -0.964300
vn -0.549836 0.000000 -0.835273
vn -0.781038 0.000000 -0.624483
vn -0.781038 0.000000 -0.624483
vn -0.549836 0.000000 -0.835273
vn -0.781038 0.000000 -0.624483
vn -0.935787 0.000000 -0.352565
vn -0.935787 0.000000 -0.352565
vn -0.781038 0.000000 -0.624483
vn -0.935787 0.000000 -0.352565
vn -0.998935 0.000000 -0.046134
vn -0.998935 0.000000 -0.046134
vn -0.935787 0.000000 -0.352565
vn -0.998935 0.000000 -0.046134
vn -0.964300 0.000000 0.264811
vn -0.964300 0.000000 0.264811
vn -0.998935 0.000000 -0.046134
vn -0.964300 0.000000 0.264811
vn -0.835273 0.000000 0.549836
vn -0.835273 0.000000 0.549836
vn -0.964300 0.000000 0.264811
vn -0.835273 0.000000 0.549836
vn -0.624483 0.000000 0.781038
vn -0.624483 0.000000 0.781038
vn -0.835273 0.000000 0.549836
vn -0.624483 0.000000 0.781038
vn -0.352565 0.000000 0.935787
vn -0.352565 0.000000 0.935787
vn -0.624483 0.000000 0.781038
vn -0.352565 0.000000 0.935787
vn -0.046134 0.000000 0.998935
vn -0.046134 0.000000 0.998935
vn -0.352565 0.000000 0.935787
vn -0.046134 0.000000 0.998935
vn 0.264811 0.000000 0.964300
vn 0.264811 0.000000 0.964300
vn -0.046134 0.000000 0.998935
vn 0.264811 0.000000 0.964300
vn 0.549836 0.000000 0.835273
vn 0.549836 0.000000 0.835273
vn 0.264811 0.000000 0.964300
vn 0.549836 0.000000 0.835273
vn 0.781038 0.000000 0.624483
vn 0.781038 0.000000 0.624483
vn 0.549836 0.000000 0.835273
vn 0.781038 0.000000 0.624483
vn 0.935787 0.000000 0.352565
vn 0.935787 0.000000 0.352565
vn 0.781038 0.000000 0.624483
vn 0.935787 0.000000 0.352565
vn 0.998935 0.000000 0.046135
vn 0.998935 0.000000 0.046135
vn 0.935787 0.000000 0.352565
vn 0.998935 0.000000 0.046135
vn 0.964300 0.000000 -0.264811
vn 0.964300 0.000000 -0.264811
vn 0.998935 0.000000 0.046135
vn 0.964300 0.000000 -0.264811
vn 0.835273 0.000000 -0.549836
vn 0.835273 0.000000 -0.549836
vn 0.964300 0.000000 -0.264811
vn 0.835273 0.000000 -0.549836
vn 0.624483 0.000000 -0.781038
vn 0.624483 0.000000 -0.781038
vn 0.835273 0.000000 -0.549836
vn 0.624483 0.000000 -0.781038
vn 0.352566 0.000000 -0.935787
vn 0.352566 0.000000 -0.935787
vn 0.624483 0.000000 -0.781038
vn 0.352566 0.000000 -0.935787
vn 0.046136 0.000000 -0.998935
vn 0.046136 0.000000 -0.998935
vn 0.352566 0.000000 -0.935787
s off
g pokeBanda:pCylinder7
usemtl phong1SG
f 1/40/1 2/41/2 22/42/3 21/3/4
f 2/1/5 3/4/6 23/5/7 22/2/8
f 3/4/9 4/6/10 24/7/11 23/5/12
f 4/6/13 5/8/14 25/9/15 24/7/16
f 5/8/17 6/10/18 26/11/19 25/9/20
f 6/10/21 7/12/22 27/13/23 26/11/24
f 7/12/25 8/14/26 28/15/27 27/13/28
f 8/14/29 9/16/30 29/17/31 28/15/32
f 9/16/33 10/18/34 30/19/35 29/17/36
f 10/18/37 11/20/38 31/21/39 30/19/40
f 11/20/41 12/22/42 32/23/43 31/21/44
f 12/22/45 13/24/46 33/25/47 32/23/48
f 13/24/49 14/26/50 34/27/51 33/25/52
f 14/26/53 15/28/54 35/29/55 34/27/56
f 15/28/57 16/30/58 36/31/59 35/29/60
f 16/30/61 17/32/62 37/33/63 36/31/64
f 17/32/65 18/34/66 38/35/67 37/33/68
f 18/34/69 19/36/70 39/37/71 38/35/72
f 19/36/73 20/38/74 40/39/75 39/37/76
f 20/38/77 1/40/78 21/3/79 40/39/80
